<svg width="33" height="33" viewBox="0 0 33 33" fill="none" xmlns="http://www.w3.org/2000/svg">
<path d="M16.5 0C7.43729 0 0 7.43729 0 16.5C0 24.2336 5.42665 31.2588 12.6328 33V27.5411C11.9188 27.6975 11.2617 27.702 10.5348 27.4877C9.55971 27.2 8.76739 26.5504 8.17925 25.5599C7.80437 24.9275 7.13995 24.2417 6.44682 24.292L6.27688 22.366C7.77567 22.2376 9.07228 23.2792 9.84194 24.5723C10.1838 25.1473 10.5774 25.4844 11.0824 25.6335C11.5706 25.7772 12.0948 25.7082 12.7056 25.4925C12.8589 24.2696 13.4191 23.8119 13.8423 23.1674V23.1664C9.5446 22.5254 7.83181 20.2453 7.15203 18.4457C6.2512 16.0561 6.7346 13.0709 8.32755 11.1844C8.35851 11.1476 8.41441 11.0514 8.39275 10.9842C7.66237 8.77796 8.55238 6.95288 8.58511 6.75927C9.42803 7.00852 9.56499 6.50851 12.2466 8.13771L12.7101 8.41617C12.904 8.53173 12.843 8.46577 13.0369 8.45116C14.1565 8.14703 15.3368 7.9791 16.4997 7.96399C17.6715 7.9791 18.8442 8.14703 20.0102 8.4635L20.1602 8.47861C20.1471 8.47659 20.201 8.46904 20.2914 8.41516C23.6412 6.38615 23.5209 7.04931 24.4192 6.75726C24.4517 6.95112 25.3298 8.80591 24.6072 10.9842C24.5098 11.2843 27.5114 14.0329 25.8477 18.4449C25.1679 20.2453 23.4554 22.5254 19.1577 23.1664V23.1674C19.7086 24.007 20.3705 24.4537 20.3669 26.1858V33C27.5733 31.2588 32.9997 24.2336 32.9997 16.5C33 7.43729 25.5627 0 16.5 0V0Z" fill="#49A49D"/>
</svg>
