<svg width="34" height="24" viewBox="0 0 34 24" fill="none" xmlns="http://www.w3.org/2000/svg">
<path d="M22.0309 13.4167L19.1834 16.2851C18.0287 17.4485 15.9969 17.4735 14.8173 16.2851L11.9696 13.4167L1.74219 23.7178C2.12289 23.8945 2.54263 24 2.98887 24H31.0118C31.458 24 31.8776 23.8947 32.2582 23.7179L22.0309 13.4167Z" fill="#49A49D"/>
<path d="M31.0116 0H2.98874C2.5425 0 2.12275 0.105467 1.74219 0.2822L12.6709 11.2904C12.6717 11.2911 12.6725 11.2913 12.6732 11.292C12.674 11.2927 12.6741 11.2937 12.6741 11.2937L16.2276 14.8731C16.6051 15.252 17.3954 15.252 17.7729 14.8731L21.3257 11.2943C21.3257 11.2943 21.3265 11.2927 21.3273 11.292C21.3273 11.292 21.3289 11.2911 21.3296 11.2904L32.2581 0.282133C31.8775 0.105333 31.4579 0 31.0116 0Z" fill="#49A49D"/>
<path d="M0.317814 1.68079C0.120857 2.08065 0 2.52452 0 2.99999V21C0 21.4755 0.120724 21.9193 0.317748 22.3192L10.5629 12.0003L0.317814 1.68079Z" fill="#49A49D"/>
<path d="M33.682 1.68066L23.437 12.0003L33.682 22.3193C33.879 21.9195 33.9999 21.4756 33.9999 21V3C33.9999 2.5244 33.879 2.08053 33.682 1.68066Z" fill="#49A49D"/>
</svg>
