<svg width="34" height="34" viewBox="0 0 34 34" fill="none" xmlns="http://www.w3.org/2000/svg">
<path d="M23.8249 12.0449L15.2032 19.0922L14.7975 19.4244C14.7084 19.4951 14.6502 19.5976 14.6352 19.7103L14.5444 20.4599L14.2952 22.5656C14.2975 22.5912 14.2896 22.6167 14.2731 22.6364C14.2566 22.6562 14.233 22.6686 14.2073 22.6709C14.1817 22.6732 14.1562 22.6652 14.1365 22.6487C14.1167 22.6322 14.1044 22.6086 14.1021 22.583L13.4008 20.4773L12.6764 18.3233C12.6455 18.2268 12.6494 18.1225 12.6875 18.0286C12.7257 17.9346 12.7956 17.8571 12.885 17.8094L21.8564 12.6669L23.5448 11.701C23.7901 11.5581 24.0413 11.8672 23.8249 12.0449Z" fill="#49A49D"/>
<path d="M17 0C13.6377 0 10.3509 0.997033 7.55531 2.86502C4.75968 4.733 2.58075 7.38804 1.29406 10.4944C0.00736589 13.6007 -0.329291 17.0189 0.326658 20.3165C0.982607 23.6142 2.6017 26.6433 4.97919 29.0208C7.35668 31.3983 10.3858 33.0174 13.6835 33.6733C16.9811 34.3293 20.3993 33.9926 23.5056 32.706C26.612 31.4193 29.267 29.2403 31.135 26.4447C33.003 23.6491 34 20.3623 34 17C34 12.4913 32.2089 8.1673 29.0208 4.97918C25.8327 1.79107 21.5087 0 17 0V0ZM27.6038 9.84068L24.2849 24.5051C24.1284 25.1928 23.2552 25.5039 22.6428 25.0847L17.6317 21.6847L15.0798 24.0975C14.9757 24.1951 14.8494 24.2659 14.7118 24.3037C14.5742 24.3415 14.4295 24.3451 14.2901 24.3143C14.1508 24.2834 14.0211 24.2191 13.9123 24.1268C13.8035 24.0344 13.7188 23.917 13.6657 23.7845L12.7442 21.08L11.8227 18.3755L6.88308 17.0232C6.74496 16.993 6.62068 16.9181 6.52955 16.81C6.43843 16.7019 6.38556 16.5668 6.37917 16.4256C6.37278 16.2843 6.41323 16.145 6.49422 16.0291C6.57522 15.9132 6.69223 15.8274 6.82705 15.7849L25.9096 8.90955L26.2611 8.78398C27.001 8.52511 27.766 9.12398 27.6038 9.84068V9.84068Z" fill="#49A49D"/>
</svg>
